<?xml version="1.0" encoding="utf-8"?>
<svg viewBox="0 -11 512.0002 512" xmlns="http://www.w3.org/2000/svg">
  <g transform="matrix(1.621815, 0, 0, 1.754898, -145.25029, -295.772888)">
    <path d="M 368.619 454.028 L 111.603 454.028 C 99.439 454.014 89.58 444.155 89.567 431.992 L 89.567 227.548 C 89.567 225.058 91.588 223.038 94.077 223.038 L 368.619 223.038 C 380.781 223.051 390.641 232.91 390.653 245.072 L 390.653 305.415 C 390.653 308.887 386.896 311.056 383.889 309.32 C 382.496 308.513 381.634 307.025 381.634 305.415 L 381.634 245.072 C 381.624 237.888 375.803 232.067 368.619 232.057 L 98.587 232.057 L 98.587 431.992 C 98.596 439.176 104.417 444.999 111.603 445.007 L 368.619 445.007 C 375.803 444.999 381.624 439.176 381.634 431.992 L 381.634 371.655 C 381.634 368.183 385.391 366.014 388.399 367.75 C 389.793 368.557 390.653 370.045 390.653 371.655 L 390.653 431.992 C 390.641 444.155 380.781 454.014 368.619 454.028 Z" style=""/>
    <path d="M 393.201 376.143 L 340.386 376.143 C 311.434 376.143 293.335 344.799 307.813 319.725 C 314.532 308.089 326.947 300.919 340.386 300.919 L 393.201 300.919 C 399.859 300.927 405.248 306.321 405.256 312.979 L 405.256 364.074 C 405.256 370.735 399.862 376.133 393.201 376.143 Z M 340.386 309.956 C 318.379 309.956 304.619 333.781 315.623 352.845 C 320.732 361.694 330.172 367.141 340.386 367.141 L 393.201 367.141 C 394.888 367.141 396.251 365.761 396.236 364.074 L 396.236 312.979 C 396.232 311.301 394.879 309.943 393.201 309.938 Z" style=""/>
    <path d="M 94.077 232.057 C 90.604 232.057 88.435 228.301 90.172 225.292 C 90.716 224.35 91.588 223.633 92.615 223.281 L 265.451 164.071 C 286.737 156.775 308.886 172.595 308.881 195.099 L 308.881 227.548 C 308.881 231.02 305.124 233.189 302.116 231.453 C 300.722 230.646 299.86 229.158 299.86 227.548 L 299.86 195.099 C 299.86 178.787 283.806 167.319 268.373 172.604 L 95.539 231.814 C 95.068 231.977 94.573 232.057 94.077 232.057 Z" style=""/>
    <path d="M 342.154 354.726 C 329.689 354.721 321.9 341.222 328.137 330.43 C 334.37 319.635 349.956 319.638 356.185 330.435 C 357.606 332.897 358.354 335.69 358.354 338.531 C 358.345 347.473 351.097 354.721 342.154 354.726 Z M 342.154 331.36 C 336.629 331.36 333.18 337.339 335.939 342.125 C 338.705 346.905 345.609 346.905 348.368 342.125 C 349 341.03 349.33 339.794 349.33 338.531 C 349.325 334.571 346.114 331.36 342.154 331.36 Z" style=""/>
    <path d="M 250.639 310.346 C 258.155 310.346 264.273 316.465 264.273 323.981 C 264.273 326.487 266.302 328.524 268.817 328.524 C 271.332 328.524 273.363 326.487 273.363 323.981 C 273.363 311.452 263.166 301.257 250.639 301.257 L 237.007 301.257 L 237.007 283.08 C 237.007 280.574 234.976 278.537 232.462 278.537 C 229.949 278.537 227.918 280.574 227.918 283.08 L 227.918 301.257 L 214.284 301.257 C 207.902 301.257 201.766 303.972 197.47 308.697 C 193.177 313.423 191.061 319.799 191.672 326.196 C 192.774 337.696 203.046 346.701 215.066 346.701 L 227.918 346.701 L 227.918 373.968 L 214.284 373.968 C 206.769 373.968 200.651 367.849 200.651 360.334 C 200.651 357.827 198.622 355.79 196.107 355.79 C 193.594 355.79 191.563 357.827 191.563 360.334 C 191.563 372.862 201.758 383.056 214.284 383.056 L 227.918 383.056 L 227.918 401.232 C 227.918 403.742 229.949 405.777 232.462 405.777 C 234.976 405.777 237.007 403.742 237.007 401.232 L 237.007 383.056 L 249.859 383.056 C 261.878 383.056 272.152 374.05 273.252 362.552 C 273.866 356.159 271.748 349.777 267.454 345.052 C 263.158 340.326 257.024 337.613 250.639 337.613 L 237.007 337.613 L 237.007 310.346 Z M 227.918 337.613 L 215.066 337.613 C 207.677 337.613 201.375 332.219 200.717 325.333 C 200.344 321.425 201.58 317.687 204.195 314.814 C 206.774 311.972 210.45 310.346 214.284 310.346 L 227.918 310.346 Z M 250.639 346.701 C 254.476 346.701 258.15 348.327 260.733 351.168 C 263.345 354.046 264.585 357.78 264.213 361.688 C 263.55 368.572 257.246 373.968 249.859 373.968 L 237.007 373.968 L 237.007 346.701 Z M 250.639 346.701" style=""/>
  </g>
</svg>