<?xml version="1.0" encoding="utf-8"?>
<svg viewBox="0 -11 512.0002 512" xmlns="http://www.w3.org/2000/svg">
  <path d="M 508.211 134.191 C 508.211 134.191 434.176 19.574 434.113 19.477 C 417.328 -6.508 378.078 -6.477 361.316 19.477 L 334.523 60.957 C 299.613 38.699 259.391 26.969 217.703 26.969 C 159.555 26.969 104.883 49.613 63.762 90.734 C 22.645 131.855 0 186.523 0 244.676 C 0 302.824 22.645 357.496 63.762 398.613 C 104.883 439.734 159.555 462.379 217.703 462.379 C 260.945 462.379 302.152 449.941 337.77 426.285 L 337.77 467.664 C 337.77 479.809 347.652 489.691 359.801 489.691 L 435.629 489.691 C 447.777 489.691 457.66 479.809 457.66 467.664 L 457.66 394.855 C 457.66 390.711 454.301 387.352 450.156 387.352 C 446.016 387.352 442.656 390.711 442.656 394.855 L 442.656 467.664 C 442.656 471.539 439.504 474.691 435.629 474.691 L 359.801 474.691 C 355.922 474.691 352.773 471.539 352.773 467.664 L 352.773 163.992 C 352.773 159.852 349.414 156.492 345.27 156.492 C 345.27 156.492 307.785 156.492 307.531 156.492 C 300.406 156.492 295.992 148.258 299.82 142.332 C 299.82 142.332 373.82 27.77 373.918 27.617 C 384.906 10.609 410.543 10.637 421.512 27.617 C 421.512 27.617 495.344 141.922 495.609 142.332 C 499.512 148.371 495.039 156.488 487.898 156.488 L 450.16 156.488 C 446.016 156.488 442.656 159.848 442.656 163.992 L 442.656 364.848 C 442.656 368.988 446.016 372.348 450.16 372.348 C 454.301 372.348 457.66 368.988 457.66 364.848 L 457.66 171.492 L 487.898 171.492 C 506.723 171.492 518.437 150.023 508.211 134.191 Z M 307.531 171.492 L 337.77 171.492 L 337.77 341.824 C 308.207 378.32 264.598 399.191 217.703 399.191 C 132.504 399.191 63.187 329.875 63.187 244.676 C 63.187 209.234 74.918 175.871 97.113 148.187 C 99.707 144.957 99.187 140.234 95.953 137.645 C 92.723 135.055 88 135.57 85.406 138.805 C 61.402 168.742 48.184 206.34 48.184 244.676 C 48.184 338.148 124.23 414.195 217.703 414.195 C 263.301 414.195 306.059 396.207 337.77 364.258 L 337.77 407.992 C 302.793 433.77 261.359 447.375 217.703 447.375 C 105.934 447.375 15.004 356.445 15.004 244.676 C 15.004 132.906 105.934 41.973 217.703 41.973 C 256.484 41.973 293.902 52.871 326.383 73.555 L 308.34 101.488 C 281.211 84.238 250.043 75.156 217.703 75.156 C 177.195 75.156 137.953 89.734 107.211 116.211 C 104.074 118.914 103.723 123.652 106.426 126.789 C 109.129 129.93 113.863 130.281 117.004 127.578 C 145.023 103.449 180.785 90.156 217.703 90.156 C 247.133 90.156 275.504 98.41 300.203 114.086 C 300.203 114.086 287.227 134.176 287.219 134.191 C 277.184 149.727 288.59 171.492 307.531 171.492 Z M 307.531 171.492" transform="matrix(-1, 0, 0, -1, 511.999817, 489.690887)"/>
  <path d="M 327.57 189 C 340.801 189 351.57 199.77 351.57 213 C 351.57 217.414 355.145 221 359.57 221 C 363.996 221 367.57 217.414 367.57 213 C 367.57 190.945 349.625 173 327.57 173 L 303.57 173 L 303.57 141 C 303.57 136.586 299.996 133 295.57 133 C 291.145 133 287.57 136.586 287.57 141 L 287.57 173 L 263.57 173 C 252.332 173 241.531 177.777 233.969 186.098 C 226.41 194.414 222.684 205.641 223.762 216.902 C 225.699 237.145 243.785 253 264.945 253 L 287.57 253 L 287.57 301 L 263.57 301 C 250.34 301 239.57 290.23 239.57 277 C 239.57 272.586 235.996 269 231.57 269 C 227.145 269 223.57 272.586 223.57 277 C 223.57 299.055 241.516 317 263.57 317 L 287.57 317 L 287.57 349 C 287.57 353.414 291.145 357 295.57 357 C 299.996 357 303.57 353.414 303.57 349 L 303.57 317 L 326.195 317 C 347.355 317 365.441 301.145 367.379 280.902 C 368.457 269.648 364.73 258.414 357.172 250.098 C 349.609 241.777 338.809 237 327.57 237 L 303.57 237 L 303.57 189 Z M 287.57 237 L 264.945 237 C 251.937 237 240.844 227.504 239.684 215.383 C 239.027 208.504 241.203 201.922 245.809 196.863 C 250.348 191.863 256.816 189 263.57 189 L 287.57 189 Z M 327.57 253 C 334.324 253 340.793 255.863 345.34 260.863 C 349.937 265.93 352.121 272.504 351.465 279.383 C 350.297 291.504 339.203 301 326.195 301 L 303.57 301 L 303.57 253 Z M 327.57 253"/>
</svg>