<?xml version="1.0" encoding="utf-8"?>
<svg viewBox="0 -11 512.0002 512" xmlns="http://www.w3.org/2000/svg">
  <path d="m508.210938 134.191406s-74.035157-114.617187-74.097657-114.714844c-16.785156-25.984374-56.035156-25.953124-72.796875 0l-26.792968 41.480469c-34.910157-22.257812-75.132813-33.988281-116.820313-33.988281-58.148437 0-112.820313 22.644531-153.941406 63.765625-41.117188 41.121094-63.761719 95.789063-63.761719 153.941406 0 58.148438 22.644531 112.820313 63.761719 153.9375 41.121093 41.121094 95.792969 63.765625 153.941406 63.765625 43.242187 0 84.449219-12.4375 120.066406-36.09375v41.378906c0 12.144532 9.882813 22.027344 22.03125 22.027344h75.828125c12.148438 0 22.03125-9.882812 22.03125-22.027344v-72.808593c0-4.144531-3.359375-7.503907-7.503906-7.503907-4.140625 0-7.5 3.359376-7.5 7.503907v72.808593c0 3.875-3.152344 7.027344-7.027344 7.027344h-75.828125c-3.878906 0-7.027343-3.152344-7.027343-7.027344v-303.671874c0-4.140626-3.359376-7.5-7.503907-7.5 0 0-37.484375 0-37.738281 0-7.125 0-11.539062-8.234376-7.710938-14.160157 0 0 74-114.5625 74.097657-114.714843 10.988281-17.007813 36.625-16.980469 47.59375 0 0 0 73.832031 114.304687 74.097656 114.714843 3.902344 6.039063-.570313 14.15625-7.710937 14.15625h-37.738282c-4.144531 0-7.503906 3.359375-7.503906 7.503907v200.855468c0 4.140625 3.359375 7.5 7.503906 7.5 4.140625 0 7.5-3.359375 7.5-7.5v-193.355468h30.238282c18.824218 0 30.539062-21.46875 20.3125-37.300782zm-200.679688 37.300782h30.238281v170.332031c-29.5625 36.496093-73.171875 57.367187-120.066406 57.367187-85.199219 0-154.515625-69.316406-154.515625-154.515625 0-35.441406 11.730469-68.804687 33.925781-96.488281 2.59375-3.230469 2.074219-7.953125-1.160156-10.542969-3.230469-2.589843-7.953125-2.074219-10.546875 1.160157-24.003906 29.9375-37.222656 67.535156-37.222656 105.871093 0 93.472657 76.046875 169.519531 169.519531 169.519531 45.597656 0 88.355469-17.988281 120.066406-49.9375v43.734376c-34.976562 25.777343-76.410156 39.382812-120.066406 39.382812-111.769531 0-202.699219-90.929688-202.699219-202.699219s90.929688-202.703125 202.699219-202.703125c38.78125 0 76.199219 10.898438 108.679687 31.582032l-18.042968 27.933593c-27.128906-17.25-58.296875-26.332031-90.636719-26.332031-40.507813 0-79.75 14.578125-110.492187 41.054688-3.136719 2.703124-3.488282 7.441406-.785157 10.578124 2.703125 3.140626 7.4375 3.492188 10.578125.789063 28.019532-24.128906 63.78125-37.421875 100.699219-37.421875 29.429687 0 57.800781 8.253906 82.5 23.929688 0 0-12.976563 20.089843-12.984375 20.105468-10.035156 15.535156 1.371094 37.300782 20.3125 37.300782zm0 0"/>
  <path d="M 251.57 189 C 264.801 189 275.57 199.77 275.57 213 C 275.57 217.414 279.145 221 283.57 221 C 287.996 221 291.57 217.414 291.57 213 C 291.57 190.945 273.625 173 251.57 173 L 227.57 173 L 227.57 141 C 227.57 136.586 223.996 133 219.57 133 C 215.145 133 211.57 136.586 211.57 141 L 211.57 173 L 187.57 173 C 176.332 173 165.531 177.777 157.969 186.098 C 150.41 194.414 146.684 205.641 147.762 216.902 C 149.699 237.145 167.785 253 188.945 253 L 211.57 253 L 211.57 301 L 187.57 301 C 174.34 301 163.57 290.23 163.57 277 C 163.57 272.586 159.996 269 155.57 269 C 151.145 269 147.57 272.586 147.57 277 C 147.57 299.055 165.516 317 187.57 317 L 211.57 317 L 211.57 349 C 211.57 353.414 215.145 357 219.57 357 C 223.996 357 227.57 353.414 227.57 349 L 227.57 317 L 250.195 317 C 271.355 317 289.441 301.145 291.379 280.902 C 292.457 269.648 288.73 258.414 281.172 250.098 C 273.609 241.777 262.809 237 251.57 237 L 227.57 237 L 227.57 189 Z M 211.57 237 L 188.945 237 C 175.937 237 164.844 227.504 163.684 215.383 C 163.027 208.504 165.203 201.922 169.809 196.863 C 174.348 191.863 180.816 189 187.57 189 L 211.57 189 Z M 251.57 253 C 258.324 253 264.793 255.863 269.34 260.863 C 273.937 265.93 276.121 272.504 275.465 279.383 C 274.297 291.504 263.203 301 250.195 301 L 227.57 301 L 227.57 253 Z M 251.57 253"/>
</svg>